<svg xmlns="http://www.w3.org/2000/svg" viewBox="0 0 220 150" width="220" height="150">
  <defs>
    <filter id="glow_1">
      <feGaussianBlur stdDeviation="4" result="blur"/>
      <feMerge>
        <feMergeNode in="blur"/>
        <feMergeNode in="SourceGraphic"/>
      </feMerge>
    </filter>
    <filter id="softglow_1">
      <feGaussianBlur stdDeviation="2" result="blur"/>
      <feMerge>
        <feMergeNode in="blur"/>
        <feMergeNode in="SourceGraphic"/>
      </feMerge>
    </filter>
  </defs>

  <!-- Card background -->
  <rect width="220" height="150" rx="14" fill="#0a192f"/>
  <rect width="220" height="150" rx="14" fill="none" stroke="#1e3a5f" stroke-width="1.5"/>

  <!-- Small tick marks -->
    <line x1="40.6" y1="127.6" x2="36.8" y2="128.8" stroke="#2d3748" stroke-width="1" stroke-linecap="round"/>
    <line x1="37.4" y1="112.6" x2="33.4" y2="113.0" stroke="#2d3748" stroke-width="1" stroke-linecap="round"/>
    <line x1="37.4" y1="97.4" x2="33.4" y2="97.0" stroke="#2d3748" stroke-width="1" stroke-linecap="round"/>
    <line x1="40.6" y1="82.4" x2="36.8" y2="81.2" stroke="#2d3748" stroke-width="1" stroke-linecap="round"/>
    <line x1="55.8" y1="56.2" x2="52.8" y2="53.5" stroke="#2d3748" stroke-width="1" stroke-linecap="round"/>
    <line x1="67.1" y1="45.9" x2="64.7" y2="42.7" stroke="#2d3748" stroke-width="1" stroke-linecap="round"/>
    <line x1="80.3" y1="38.3" x2="78.7" y2="34.7" stroke="#2d3748" stroke-width="1" stroke-linecap="round"/>
    <line x1="94.8" y1="33.6" x2="94.0" y2="29.7" stroke="#2d3748" stroke-width="1" stroke-linecap="round"/>
    <line x1="125.2" y1="33.6" x2="126.0" y2="29.7" stroke="#2d3748" stroke-width="1" stroke-linecap="round"/>
    <line x1="139.7" y1="38.3" x2="141.3" y2="34.7" stroke="#2d3748" stroke-width="1" stroke-linecap="round"/>
    <line x1="152.9" y1="45.9" x2="155.3" y2="42.7" stroke="#2d3748" stroke-width="1" stroke-linecap="round"/>
    <line x1="164.2" y1="56.2" x2="167.2" y2="53.5" stroke="#2d3748" stroke-width="1" stroke-linecap="round"/>
    <line x1="179.4" y1="82.4" x2="183.2" y2="81.2" stroke="#2d3748" stroke-width="1" stroke-linecap="round"/>
    <line x1="182.6" y1="97.4" x2="186.6" y2="97.0" stroke="#2d3748" stroke-width="1" stroke-linecap="round"/>
    <line x1="182.6" y1="112.6" x2="186.6" y2="113.0" stroke="#2d3748" stroke-width="1" stroke-linecap="round"/>
    <line x1="179.4" y1="127.6" x2="183.2" y2="128.8" stroke="#2d3748" stroke-width="1" stroke-linecap="round"/>

  <!-- Major tick marks -->
    <line x1="46.8" y1="141.5" x2="40.7" y2="145.0" stroke="#4a5568" stroke-width="2" stroke-linecap="round"/>
    <line x1="46.8" y1="68.5" x2="40.7" y2="65.0" stroke="#4a5568" stroke-width="2" stroke-linecap="round"/>
    <line x1="110.0" y1="32.0" x2="110.0" y2="25.0" stroke="#4a5568" stroke-width="2" stroke-linecap="round"/>
    <line x1="173.2" y1="68.5" x2="179.3" y2="65.0" stroke="#4a5568" stroke-width="2" stroke-linecap="round"/>
    <line x1="173.2" y1="141.5" x2="179.3" y2="145.0" stroke="#4a5568" stroke-width="2" stroke-linecap="round"/>

  <!-- Background arc -->
  <path d="M 53.71,137.50 A 65,65 0 1,0 166.29,137.50" fill="none" stroke="#1e3a5f" stroke-width="12" stroke-linecap="round"/>

  <!-- Value arc -->
  <path d="M 53.71,137.50 A 65,65 0 1,0 174.64,111.79" fill="none" stroke="#00d4ff" stroke-width="12" stroke-linecap="round" filter="url(#glow_1)"/>

  <!-- Center circle -->
  <circle cx="110" cy="105" r="8" fill="#0a192f" stroke="#1e3a5f" stroke-width="2"/>
  <circle cx="110" cy="105" r="4" fill="#00d4ff" filter="url(#softglow_1)"/>

  <!-- Needle -->
  <line x1="110" y1="105" x2="152.8" y2="109.5" stroke="#e6f1ff" stroke-width="2.5" stroke-linecap="round"/>

  <!-- Percentage -->
  <text x="110" y="135" text-anchor="middle" fill="#00d4ff" font-family="'Segoe UI', sans-serif" font-size="22" font-weight="bold" filter="url(#softglow_1)">90%</text>

  <!-- Label -->
  <text x="110" y="18" text-anchor="middle" fill="#8892b0" font-family="'Segoe UI', sans-serif" font-size="11" font-weight="600">Artificial Intelligence</text>
</svg>